<svg width="99" height="101" viewBox="0 0 99 101" fill="none" xmlns="http://www.w3.org/2000/svg">
<path fill-rule="evenodd" clip-rule="evenodd" d="M5.46185 50.6241C5.46185 61.626 9.40388 71.6945 15.9384 79.4829L12.4462 83.0057C5.02639 74.3117 0.539062 62.9972 0.539062 50.6241C0.539062 38.2516 5.02639 26.9365 12.4462 18.2412L15.9384 21.7647C9.40388 29.5524 5.46185 39.6223 5.46185 50.6241Z" fill="white"/>
<path fill-rule="evenodd" clip-rule="evenodd" d="M49.7681 5.92938C60.6742 5.92938 70.6565 9.90666 78.3764 16.4972L81.8693 12.9744C73.249 5.48878 62.0329 0.963379 49.7681 0.963379C37.5033 0.963379 26.2873 5.48878 17.667 12.9744L21.1611 16.4972C28.8798 9.90666 38.862 5.92938 49.7681 5.92938Z" fill="white"/>
<path fill-rule="evenodd" clip-rule="evenodd" d="M94.0752 50.6241C94.0752 61.626 90.1332 71.6945 83.5986 79.4829L87.0908 83.0057C94.5107 74.3117 98.998 62.9972 98.998 50.6241C98.998 38.2516 94.5107 26.9365 87.0908 18.2412L83.5986 21.7647C90.1332 29.5524 94.0752 39.6223 94.0752 50.6241Z" fill="white"/>
<path fill-rule="evenodd" clip-rule="evenodd" d="M49.7681 95.3162C38.862 95.3162 28.8798 91.3409 21.1611 84.749L17.667 88.2699C26.2873 95.7575 37.5033 100.284 49.7681 100.284C62.0329 100.284 73.249 95.7575 81.8693 88.2699L78.3764 84.749C70.6565 91.3409 60.6742 95.3162 49.7681 95.3162Z" fill="white"/>
<path fill-rule="evenodd" clip-rule="evenodd" d="M71.3277 20.3994L68.8555 24.7177C76.6898 30.6019 81.7637 40.0141 81.7637 50.6242C81.7637 61.2329 76.6898 70.6472 68.8555 76.53L71.3277 80.8496C80.6286 74.0862 86.6865 63.0718 86.6865 50.6242C86.6865 38.1759 80.6286 27.1621 71.3277 20.3994Z" fill="white"/>
<path fill-rule="evenodd" clip-rule="evenodd" d="M49.7701 82.9049C33.3475 82.9049 19.8221 70.421 17.99 54.3496H13.0332C14.8862 73.1688 30.6262 87.869 49.7701 87.869C55.1793 87.869 60.3107 86.6857 64.9399 84.579L62.4664 80.2561C58.5728 81.9571 54.2816 82.9049 49.7701 82.9049Z" fill="white"/>
<path fill-rule="evenodd" clip-rule="evenodd" d="M49.7701 18.343C54.2816 18.343 58.5728 19.2901 62.4664 20.9899L64.9399 16.6689C60.3107 14.5602 55.1793 13.377 49.7701 13.377C30.6262 13.377 14.8862 28.0764 13.0332 46.897H17.99C19.8221 30.8262 33.3475 18.343 49.7701 18.343Z" fill="white"/>
<path fill-rule="evenodd" clip-rule="evenodd" d="M30.203 52.8747C29.1137 43.2395 35.0519 34.4348 43.9069 31.6612L43.3413 26.6523C31.7762 29.792 23.9137 41.0702 25.3123 53.438C26.7102 65.8045 36.8886 75.0063 48.8565 75.4377L48.2909 70.4302C39.0436 69.7389 31.2923 62.5086 30.203 52.8747Z" fill="white"/>
<path fill-rule="evenodd" clip-rule="evenodd" d="M51.2443 30.818C60.4929 31.5085 68.2429 38.7382 69.3322 48.3741C70.4215 58.0073 64.4846 66.8127 55.6283 69.5876L56.1939 74.5938C67.7591 71.4548 75.6215 60.1773 74.2236 47.8108C72.825 35.4436 62.6467 26.2411 50.6787 25.8091L51.2443 30.818Z" fill="white"/>
</svg>
